<mxfile host="app.diagrams.net" modified="2023-10-24T08:22:13.723Z" agent="Mozilla/5.0 (Macintosh; Intel Mac OS X 10_15_7) AppleWebKit/605.1.15 (KHTML, like Gecko) Version/17.0.1 Safari/605.1.15" version="22.0.6" etag="5rDx85igKhH5WYyUv8lY" type="github">
  <diagram name="StrÃ¡nka-1" id="HImWlFVV2Bi5CLQINQV6">
    <mxGraphModel>
      <root>
        <mxCell id="0" />
        <mxCell id="1" parent="0" />
      </root>
    </mxGraphModel>
  </diagram>
</mxfile>
